<svg width="24" height="24" viewBox="0 0 24 24" fill="none" xmlns="http://www.w3.org/2000/svg">
<path fill-rule="evenodd" clip-rule="evenodd" d="M5.74209 0L14.3999 0.111538L21.5999 7.2V20.8756C21.5999 22.6027 20.1052 24 18.2641 24H5.74209C3.89459 24 2.3999 22.6027 2.3999 20.8756V3.12443C2.39987 1.3973 3.89455 0 5.74209 0Z" fill="#15B696"/>
<path d="M7.46422 18.2498C7.33766 18.2498 7.22899 18.2051 7.13823 18.1156C7.04874 18.0248 7.00399 17.9161 7.00399 17.7896C7.00399 17.6643 7.04874 17.5569 7.13823 17.4674C7.22899 17.3779 7.33766 17.3332 7.46422 17.3332C7.58695 17.3332 7.69434 17.3779 7.78638 17.4674C7.87843 17.5569 7.92445 17.6643 7.92445 17.7896C7.92445 17.874 7.90272 17.9513 7.85925 18.0216C7.81706 18.0906 7.76145 18.1463 7.69242 18.1884C7.62338 18.2294 7.54732 18.2498 7.46422 18.2498ZM8.61048 14.2727H9.63448L10.716 16.9113H10.762L11.8436 14.2727H12.8676V18.2H12.0622V15.6438H12.0296L11.0132 18.1808H10.4648L9.44847 15.6342H9.41587V18.2H8.61048V14.2727ZM14.9439 18.2H13.5517V14.2727H14.9554C15.3504 14.2727 15.6905 14.3513 15.9756 14.5085C16.2606 14.6645 16.4799 14.8889 16.6333 15.1816C16.788 15.4744 16.8653 15.8247 16.8653 16.2325C16.8653 16.6416 16.788 16.9931 16.6333 17.2872C16.4799 17.5812 16.2594 17.8068 15.9717 17.9641C15.6854 18.1213 15.3427 18.2 14.9439 18.2ZM14.382 17.4885H14.9094C15.1548 17.4885 15.3613 17.4451 15.5287 17.3581C15.6975 17.2699 15.8241 17.1338 15.9084 16.9497C15.9941 16.7643 16.0369 16.5252 16.0369 16.2325C16.0369 15.9423 15.9941 15.7051 15.9084 15.521C15.8241 15.337 15.6981 15.2014 15.5307 15.1145C15.3632 15.0276 15.1567 14.9841 14.9113 14.9841H14.382V17.4885Z" fill="white"/>
<path d="M14.4153 4.896V0L21.5999 7.2H16.8102C14.6548 7.2 14.3155 5.664 14.4153 4.896Z" fill="white" fill-opacity="0.3"/>
</svg>
