<svg width="24" height="24" viewBox="0 0 24 24" fill="none" xmlns="http://www.w3.org/2000/svg">
<path fill-rule="evenodd" clip-rule="evenodd" d="M5.74209 0H14.3999L21.5999 7.2V20.8756C21.5999 22.6027 20.1052 24 18.2641 24H5.74209C3.89459 24 2.3999 22.6027 2.3999 20.8756V3.12443C2.39987 1.3973 3.89455 0 5.74209 0Z" fill="#155EEF"/>
<path d="M5.73889 19.2H4.34671V15.2727H5.7504C6.14543 15.2727 6.48549 15.3513 6.77057 15.5085C7.05566 15.6645 7.2749 15.8889 7.42831 16.1816C7.583 16.4744 7.66034 16.8247 7.66034 17.2325C7.66034 17.6416 7.583 17.9931 7.42831 18.2872C7.2749 18.5812 7.05438 18.8068 6.76674 18.9641C6.48037 19.1213 6.13776 19.2 5.73889 19.2ZM5.17703 18.4885H5.70438C5.94983 18.4885 6.15629 18.4451 6.32377 18.3581C6.49252 18.2699 6.61908 18.1338 6.70345 17.9497C6.78911 17.7643 6.83193 17.5252 6.83193 17.2325C6.83193 16.9423 6.78911 16.7051 6.70345 16.521C6.61908 16.337 6.49316 16.2014 6.32568 16.1145C6.15821 16.0276 5.95175 15.9841 5.70629 15.9841H5.17703V18.4885ZM11.8844 17.2363C11.8844 17.6646 11.8032 18.0289 11.6408 18.3294C11.4798 18.6298 11.2599 18.8593 10.9812 19.0178C10.7038 19.175 10.3918 19.2536 10.0454 19.2536C9.69637 19.2536 9.38316 19.1744 9.10574 19.0159C8.82833 18.8573 8.60908 18.6279 8.448 18.3274C8.28692 18.027 8.20638 17.6633 8.20638 17.2363C8.20638 16.808 8.28692 16.4437 8.448 16.1433C8.60908 15.8428 8.82833 15.614 9.10574 15.4568C9.38316 15.2982 9.69637 15.219 10.0454 15.219C10.3918 15.219 10.7038 15.2982 10.9812 15.4568C11.2599 15.614 11.4798 15.8428 11.6408 16.1433C11.8032 16.4437 11.8844 16.808 11.8844 17.2363ZM11.0425 17.2363C11.0425 16.9589 11.001 16.725 10.9179 16.5345C10.8361 16.344 10.7204 16.1995 10.5708 16.1011C10.4212 16.0027 10.2461 15.9534 10.0454 15.9534C9.84466 15.9534 9.66952 16.0027 9.51995 16.1011C9.37038 16.1995 9.25404 16.344 9.17094 16.5345C9.08913 16.725 9.04822 16.9589 9.04822 17.2363C9.04822 17.5137 9.08913 17.7477 9.17094 17.9382C9.25404 18.1286 9.37038 18.2731 9.51995 18.3715C9.66952 18.47 9.84466 18.5192 10.0454 18.5192C10.2461 18.5192 10.4212 18.47 10.5708 18.3715C10.7204 18.2731 10.8361 18.1286 10.9179 17.9382C11.001 17.7477 11.0425 17.5137 11.0425 17.2363ZM15.9646 16.6476H15.1247C15.1093 16.5389 15.078 16.4424 15.0307 16.358C14.9834 16.2724 14.9227 16.1995 14.8485 16.1394C14.7744 16.0794 14.6887 16.0333 14.5916 16.0014C14.4957 15.9694 14.3915 15.9534 14.279 15.9534C14.0757 15.9534 13.8987 16.0039 13.7478 16.1049C13.597 16.2046 13.48 16.3504 13.3969 16.5421C13.3138 16.7326 13.2722 16.964 13.2722 17.2363C13.2722 17.5163 13.3138 17.7515 13.3969 17.942C13.4813 18.1325 13.5989 18.2763 13.7497 18.3735C13.9006 18.4706 14.0751 18.5192 14.2732 18.5192C14.3845 18.5192 14.4874 18.5045 14.582 18.4751C14.6779 18.4457 14.7629 18.4029 14.837 18.3466C14.9112 18.2891 14.9725 18.2194 15.0211 18.1376C15.071 18.0558 15.1055 17.9625 15.1247 17.8576L15.9646 17.8615C15.9428 18.0417 15.8885 18.2156 15.8016 18.383C15.7159 18.5492 15.6002 18.6982 15.4545 18.8299C15.31 18.9602 15.1374 19.0638 14.9367 19.1405C14.7373 19.2159 14.5117 19.2536 14.2598 19.2536C13.9095 19.2536 13.5963 19.1744 13.3202 19.0159C13.0453 18.8573 12.828 18.6279 12.6682 18.3274C12.5097 18.027 12.4304 17.6633 12.4304 17.2363C12.4304 16.808 12.5109 16.4437 12.672 16.1433C12.8331 15.8428 13.0517 15.614 13.3279 15.4568C13.604 15.2982 13.9146 15.219 14.2598 15.219C14.4874 15.219 14.6983 15.2509 14.8926 15.3149C15.0882 15.3788 15.2614 15.4721 15.4123 15.5948C15.5631 15.7163 15.6859 15.8652 15.7805 16.0416C15.8764 16.2181 15.9377 16.4201 15.9646 16.6476ZM17.2542 15.2727L18.0461 16.6112H18.0768L18.8726 15.2727H19.8103L18.6118 17.2363L19.8372 19.2H18.8822L18.0768 17.8595H18.0461L17.2407 19.2H16.2896L17.5188 17.2363L16.3126 15.2727H17.2542Z" fill="white"/>
<path d="M14.4153 4.896V0L21.5999 7.2H16.8102C14.6548 7.2 14.3155 5.664 14.4153 4.896Z" fill="white" fill-opacity="0.3"/>
</svg>
